<svg
      width="70"
      height="80"
      viewBox="0 0 70 80"
      fill="none"
      xmlns="http://www.w3.org/2000/svg"
    >
      <path
        d="M62.5 0H7.5C3.5 0 0 3.5 0 7.5V72.5C0 76.5 3.5 80 7.5 80H62.5C66.5 80 70 76.5 70 72.5V7.5C70 3.5 66.5 0 62.5 0ZM20 68C20 69 19 70 18 70H12C11 70 10 69 10 68V62C10 61 11 60 12 60H18C19 60 20 61 20 62V68ZM20 48C20 49 19 50 18 50H12C11 50 10 49 10 48V42C10 41 11 40 12 40H18C19 40 20 41 20 42V48ZM40 68C40 69 39 70 38 70H32C31 70 30 69 30 68V62C30 61 31 60 32 60H38C39 60 40 61 40 62V68ZM40 48C40 49 39 50 38 50H32C31 50 30 49 30 48V42C30 41 31 40 32 40H38C39 40 40 41 40 42V48ZM60 68C60 69 59 70 58 70H52C51 70 50 69 50 68V42C50 41 51 40 52 40H58C59 40 60 41 60 42V68ZM60 28C60 29 59 30 58 30H12C11 30 10 29 10 28V12C10 11 11 10 12 10H58C59 10 60 11 60 12V28Z"
        fill="#5C48D3"
      />
    </svg>